<?xml version="1.0" encoding="UTF-8"?>
<svg id="svg3" version="1.2" viewBox="0 0 512 512" xmlns="http://www.w3.org/2000/svg" width="512" height="512">
 <title id="title1">automatalib</title>
 <defs id="defs3">
  <linearGradient id="g1" x2="1" gradientTransform="matrix(-350.3 -500.27 500.27 -350.3 431.15 506.14)" gradientUnits="userSpaceOnUse">
   <stop id="stop1" stop-color="#df7b32" offset="0"/>
   <stop id="stop2" stop-color="#e4a940" offset=".633"/>
   <stop id="stop3" stop-color="#f5c157" offset="1"/>
  </linearGradient>
 </defs>
 <style id="style3">.s0 { fill: url(#g1);stroke: #eeb64d;stroke-miterlimit:100;stroke-width: 12 } 
		.s1 { fill: #ffffff } 
		.s2 { fill: none;stroke: #ffffff;paint-order:stroke fill markers;stroke-miterlimit:100;stroke-width: 7.9 } 
		.s3 { fill: none;stroke: #ffffff;stroke-miterlimit:100;stroke-width: 3.9 }</style>
 <g id="g3">
  <path id="background" class="s0" d="m5.8626 85.985c0-44.263 35.86-80.122 80.122-80.122h340.03c44.263 0 80.122 35.86 80.122 80.122v340.03c0 44.263-35.86 80.122-80.122 80.122h-340.03c-44.263 0-80.122-35.86-80.122-80.122z" fill="url(#g1)"/>
 </g>
 <g id="text">
  <path id="Shape 3" class="s1" d="m152 391.9h133.4v32.1h-133.4zm87.7 20.3h1.1v1h-1.1z"/>
  <path id="Æ copy" class="s1" d="m151.7 384.6v-8.2h37.4v3.8h.1v43.7h-37.5zm0-124.5v-37.8h37.4v111.5h-37.4z" fill-rule="evenodd"/>
  <path id="IB" class="s1" d="m297.6 392.5v31.5h-5.4v-31.5zm18.2 31.5h-11.5v-31.5h10.8q5.4 0 8.1 2.1 2.8 2.2 2.8 6.4 0 2.2-1.1 3.9-1.2 1.8-3.5 2.7 2.6.7 4 2.6t1.4 4.6q0 4.4-2.9 6.8-2.8 2.4-8.1 2.4zm.5-14.2h-6.5v9.8h6.1q2.5 0 4-1.2 1.4-1.3 1.4-3.6 0-4.9-5-5zm-6.5-12.9v8.9h5.4q2.5 0 3.9-1.2 1.5-1.1 1.5-3.3 0-2.3-1.4-3.3-1.3-1.1-4.1-1.1z" aria-label="IB"/>
  <path id="Layer 11" class="s1" d="m104 339h93.9v33h-93.9z"/>
  <path id="&lt;/Layer group&gt;" class="s1" d="m106.5 371.1-18.8 40h-39.5l92-175.9 6.5-12.7h.2v62.9l-25.5 53.9h12.1v31.8z" fill-rule="evenodd"/>
  <path id="UTOMATA" class="s1" d="m222.5 339.5h5.5v21.1q0 5-3.3 7.9-3.2 2.9-8.6 2.9-5.5 0-8.7-2.8-3.2-2.9-3.2-8.1v-21h5.5v21.1q0 3.1 1.6 4.8t4.8 1.7q6.4 0 6.4-6.7zm34.4 0v4.4h-10v27.1h-5.4v-27.1h-9.9v-4.4zm29 14.8v1.8q0 4.6-1.6 8.1-1.7 3.5-4.7 5.4-3 1.8-6.9 1.8-3.8 0-6.9-1.8-3-1.9-4.7-5.4-1.6-3.4-1.6-8v-1.7q0-4.6 1.6-8.2 1.7-3.5 4.7-5.3 3-1.9 6.9-1.9t6.9 1.8q3 1.9 4.6 5.3 1.6 3.5 1.7 8.1zm-5.6 1.8v-1.7q0-5.2-2-8t-5.6-2.8-5.6 2.8-2.1 7.9v1.8q0 5.2 2 8 2.1 2.8 5.7 2.8 3.7 0 5.7-2.7 1.9-2.8 1.9-8.1zm11.1-16.6h7.1l9.2 24.1 9.2-24.1h7.1v31.5h-5.5v-10.4l.6-13.9-9.4 24.3h-4l-9.4-24.3.6 13.9v10.4h-5.5zm59.9 31.5-2.6-7.3h-12.3l-2.6 7.3h-5.7l12-31.5h5l12 31.5zm-8.7-24.8-4.7 13h9.3zm38.5-6.6v4.4h-10v27.1h-5.4v-27.1h-9.9v-4.4zm22 31.5-2.6-7.4h-12.3l-2.6 7.4h-5.8l12-31.5h5l12 31.5zm-8.7-24.9-4.6 13.1h9.2z" aria-label="UTOMATA"/>
 </g>
 <g id="graph" opacity=".6">
  <g id="states">
   <path id="Layer 1 copy 2" class="s2" d="m423.5 455c-14.7 0-26.5-11.8-26.5-26.5s11.8-26.5 26.5-26.5 26.5 11.8 26.5 26.5-11.8 26.5-26.5 26.5z"/>
   <path id="Layer 1" class="s2" d="m379.5 259c-14.7 0-26.5-11.8-26.5-26.5s11.8-26.5 26.5-26.5 26.5 11.8 26.5 26.5-11.8 26.5-26.5 26.5z"/>
   <path id="Layer 1 copy" class="s2" d="m156.5 112c-14.7 0-26.5-11.8-26.5-26.5s11.8-26.5 26.5-26.5 26.5 11.8 26.5 26.5-11.8 26.5-26.5 26.5z"/>
   <path id="Layer 2" class="s3" d="m156.5 107c-11.9 0-21.5-9.6-21.5-21.5s9.6-21.5 21.5-21.5 21.5 9.6 21.5 21.5-9.6 21.5-21.5 21.5z"/>
  </g>
  <g id="transitions">
   <path id="Layer 4" class="s3" d="m351 232s-114-8-172-119"/>
   <path id="Layer 5" class="s3" d="m145 59s-12.7-34.7-65-69"/>
   <path id="Layer 6" class="s3" d="m192 78s108-21 103-97"/>
   <path id="Layer 7" class="s3" d="m525 167s-48.7 49-118 61"/>
   <path id="Layer 8" class="s3" d="m407 462s-21 27.3-25 60"/>
   <path id="Shape 5" class="s3" d="m435 403"/>
   <path id="Shape 6" class="s3" d="m438 404s61.4-79.6-18-152"/>
  </g>
  <g id="arrowheads">
   <path id="Shape 4" class="s1" d="m409.3 456 1.2 19.3-17.3-8.6z"/>
   <path id="Shape 4 copy" class="s1" d="m426.4 246.7-11.2 15.8-8.1-17.6z"/>
   <path id="Shape 4 copy 2" class="s1" d="m192.7 117.2-15.9 11-1.6-19.3z"/>
   <path id="Shape 4 copy 3" class="s1" d="m200.4 66.4 4.9 18.7-18.7-5.1z"/>
  </g>
 </g>
</svg>
